PathFileType	4	(X/Y/Z)	/Users/itak/Documents/Research/Walk-IL/dataset/trc/00172_00008.trc
DataRate	CameraRate	NumFrames	NumMarkers	Units	OrigDataRate	OrigDataStartFrame	OrigNumFrames
100.000000	100.000000	4	53	mm	100.000000	0	579
Frame#	Time	RPSI			LPSI			L3			STRN			T10			C7			CLAV			RBAK			LBAK			LSHO			LUPA			LAEL			LAOL			LWTS			LWPS			LFRA			LIFD			LHPS			LHTS			RSHO			RUPA			RAEL			RAOL			RWTS			RWPS			RFRA			RIFD			RHTS			RHPS			RBHD			LFHD			RFHD			LBHD			LHIP			RHIP			RASI			LASI			LKNE			LTHI			LANK			LTIP			LTOE			LMT1			LMT5			LHEE			RKNE			RANK			RTIP			RTOE			RMT1			RMT5			RHEE			RTHI			
		X1	Y1	Z1	X2	Y2	Z2	X3	Y3	Z3	X4	Y4	Z4	X5	Y5	Z5	X6	Y6	Z6	X7	Y7	Z7	X8	Y8	Z8	X9	Y9	Z9	X10	Y10	Z10	X11	Y11	Z11	X12	Y12	Z12	X13	Y13	Z13	X14	Y14	Z14	X15	Y15	Z15	X16	Y16	Z16	X17	Y17	Z17	X18	Y18	Z18	X19	Y19	Z19	X20	Y20	Z20	X21	Y21	Z21	X22	Y22	Z22	X23	Y23	Z23	X24	Y24	Z24	X25	Y25	Z25	X26	Y26	Z26	X27	Y27	Z27	X28	Y28	Z28	X29	Y29	Z29	X30	Y30	Z30	X31	Y31	Z31	X32	Y32	Z32	X33	Y33	Z33	X34	Y34	Z34	X35	Y35	Z35	X36	Y36	Z36	X37	Y37	Z37	X38	Y38	Z38	X39	Y39	Z39	X40	Y40	Z40	X41	Y41	Z41	X42	Y42	Z42	X43	Y43	Z43	X44	Y44	Z44	X45	Y45	Z45	X46	Y46	Z46	X47	Y47	Z47	X48	Y48	Z48	X49	Y49	Z49	X50	Y50	Z50	X51	Y51	Z51	X52	Y52	Z52	X53	Y53	Z53	

1	0	835.0485229492188	1054.97705078125	230.3877868652344	835.4910888671875	1048.930419921875	106.6831741333008	834.66455078125	1090.140991210938	171.3490600585938	1087.301513671875	1298.769409179688	147.6505584716797	798.2959594726562	1243.594482421875	164.3913879394531	855.363037109375	1515.112670898438	142.8753814697266	1056.140380859375	1411.025756835938	137.431884765625	799.1082763671875	1340.818115234375	260.3579711914062	843.0248413085938	1486.974487304688	43.66070938110352	915.5780029296875	1472.903930664062	-39.00199127197266	882.3692626953125	1337.998046875	-107.6104278564453	904.395751953125	1121.491333007812	-126.0005264282227	865.7401733398438	1104.174194335938	-49.03884506225586	1024.053588867188	894.6348266601562	-107.7483444213867	938.323974609375	869.800537109375	-137.8437652587891	920.1983032226562	1011.862915039062	-141.4783477783203	1048.516845703125	707.5107421875	-92.02938842773438	961.634033203125	800.7217407226562	-136.5946350097656	1034.357177734375	816.5189208984375	-130.7946166992188	932.2118530273438	1496.679809570312	321.48876953125	919.284912109375	1430.13720703125	392.6631774902344	928.775146484375	1142.625366210938	455.075439453125	919.9763793945312	1130.090209960938	359.6404113769531	1093.050537109375	934.4031372070312	430.5482788085938	1025.640747070312	908.8192749023438	482.3385925292969	963.281982421875	1073.570068359375	472.9485473632812	1133.159423828125	750.7369995117188	408.2701416015625	1132.249267578125	846.59423828125	437.1988830566406	1064.097290039062	829.9219970703125	477.5003051757812	928.6126708984375	1681.5498046875	208.9142608642578	1091.255859375	1716.318725585938	67.92531585693359	1097.99755859375	1720.040161132812	197.8434448242188	912.9398803710938	1685.369750976562	72.11454010009766	931.1392822265625	987.2529296875	-14.45543956756592	997.7437133789062	1015.963684082031	350.0312805175781	1074.7939453125	1040.814697265625	290.2471313476562	1060.295288085938	1026.734985351562	32.75084686279297	939.3746948242188	493.2164001464844	18.52131080627441	956.5517578125	633.45458984375	-8.250592231750488	834.8890991210938	39.38743591308594	12.07954216003418	889.5717163085938	272.8132934570312	2.944129943847656	1056.477416992188	36.71063995361328	24.47736740112305	1008.644775390625	39.21421432495117	74.59324645996094	939.9237670898438	30.33795928955078	-34.44809341430664	788.42919921875	38.97008514404297	85.21681213378906	983.6168823242188	514.3172607421875	331.3459167480469	870.81396484375	38.29019927978516	340.9265441894531	983.6407470703125	395.909423828125	312.2791748046875	1091.705200195312	39.14488983154297	291.3124694824219	1032.901245117188	37.71990203857422	250.3811950683594	984.9968872070312	32.96944427490234	369.7763061523438	814.60791015625	37.29932403564453	276.9075317382812	1042.596069335938	782.087890625	356.2391052246094	
2	0.01	835.0001831054688	1054.949829101562	230.4216003417969	835.6356201171875	1048.904663085938	106.6387786865234	834.8938598632812	1090.118286132812	171.3301544189453	1087.4462890625	1298.745483398438	147.648681640625	798.5284423828125	1243.584594726562	164.3052368164062	855.6088256835938	1515.11865234375	142.8877258300781	1056.317504882812	1411.008056640625	137.4253845214844	799.1546630859375	1340.794067382812	260.2284851074219	843.307861328125	1487.06396484375	43.62303924560547	915.7005615234375	1472.871459960938	-39.03698348999023	882.010498046875	1337.86865234375	-107.4851913452148	903.0473022460938	1121.2607421875	-125.2456512451172	864.8004150390625	1104.336791992188	-48.01049041748047	1021.687194824219	893.8613891601562	-107.0732727050781	935.6972045898438	869.3928833007812	-136.6334991455078	918.2278442382812	1011.558349609375	-140.52587890625	1045.327514648438	706.64697265625	-90.96076965332031	958.7650146484375	800.2451171875	-135.3914031982422	1031.450561523438	815.5582885742188	-129.919921875	932.2860107421875	1496.54052734375	321.5675048828125	919.0836181640625	1429.930419921875	392.6302795410156	927.0994873046875	1142.06103515625	453.9524841308594	919.1396484375	1130.008056640625	358.3717651367188	1091.034912109375	933.4966430664062	430.1681213378906	1022.977966308594	907.7719116210938	480.9285583496094	961.2272338867188	1072.8251953125	471.8055114746094	1131.016479492188	749.8832397460938	407.1969604492188	1129.926513671875	845.330322265625	436.9050598144531	1061.218383789062	828.7650146484375	476.0205993652344	928.8095703125	1681.495239257812	208.9410705566406	1091.414916992188	1716.340209960938	67.90012359619141	1098.156127929688	1720.032592773438	197.8265075683594	913.0765380859375	1685.329956054688	72.16532897949219	931.3386840820312	987.23779296875	-14.47442531585693	997.8490600585938	1015.648010253906	349.8811950683594	1074.9345703125	1040.778442382812	290.2383728027344	1060.471313476562	1026.708618164062	32.75492858886719	939.4345092773438	493.2005920410156	18.50990676879883	955.8933715820312	633.5364990234375	-8.510904312133789	834.8959350585938	39.39426422119141	12.0786247253418	889.61181640625	272.8091430664062	2.952966451644897	1056.482055664062	36.70872116088867	24.4808464050293	1008.644958496094	39.214599609375	74.59306335449219	939.9230346679688	30.33736610412598	-34.44841384887695	788.4270629882812	38.97164535522461	85.2161865234375	983.6981201171875	514.2828369140625	331.3081665039062	870.8076171875	38.29563903808594	340.9220581054688	983.685791015625	395.8774719238281	312.2751770019531	1091.708251953125	39.13822174072266	291.3117370605469	1032.903564453125	37.71578979492188	250.3798370361328	984.9938354492188	32.9737663269043	369.7665405273438	814.6080932617188	37.30026245117188	276.9058227539062	1042.729248046875	782.0436401367188	356.2364807128906	
3	0.02	834.97900390625	1054.894165039062	230.469482421875	835.8163452148438	1048.868530273438	106.5872802734375	835.1819458007812	1090.08740234375	171.2965545654297	1087.634765625	1298.71337890625	147.6554260253906	798.8179321289062	1243.574829101562	164.192138671875	855.9068603515625	1515.123657226562	142.9047698974609	1056.543579101562	1410.984252929688	137.4242095947266	799.2184448242188	1340.770141601562	260.0601806640625	843.6414184570312	1487.158935546875	43.59198379516602	915.8673095703125	1472.839111328125	-39.07704925537109	881.5903930664062	1337.744262695312	-107.3422088623047	901.3857421875	1120.99365234375	-124.3171157836914	863.5848388671875	1104.550170898438	-46.76190948486328	1018.737609863281	892.91748046875	-106.1831130981445	932.447265625	868.91943359375	-135.1330261230469	915.8084106445312	1011.200988769531	-139.3455047607422	1041.333374023438	705.6034545898438	-89.57455444335938	955.1924438476562	799.669921875	-133.8688201904297	1027.8515625	814.4033203125	-128.7825927734375	932.3834838867188	1496.376098632812	321.6650085449219	918.8338623046875	1429.690551757812	392.5927734375	925.0339965820312	1141.391967773438	452.5738220214844	918.0533447265625	1129.927612304688	356.8296813964844	1088.486083984375	932.3658447265625	429.6897888183594	1019.637512207031	906.4918212890625	479.1874389648438	958.6792602539062	1071.928588867188	470.392333984375	1128.255859375	748.8077392578125	405.8352661132812	1126.964233398438	843.7603759765625	436.4951782226562	1057.595581054688	827.3410034179688	474.174560546875	929.0663452148438	1681.428100585938	208.9828338623047	1091.616821289062	1716.360595703125	67.88291931152344	1098.373413085938	1720.021118164062	197.8106536865234	913.2518920898438	1685.28125	72.24134063720703	931.6018676757812	987.2186889648438	-14.49551963806152	997.9962158203125	1015.282165527344	349.7155456542969	1075.109497070312	1040.736572265625	290.2257690429688	1060.69775390625	1026.681762695312	32.76244354248047	939.5184326171875	493.1791381835938	18.49530220031738	955.0504150390625	633.664306640625	-8.820796966552734	834.9033203125	39.40042877197266	12.07814788818359	889.6668090820312	272.8052673339844	2.965655565261841	1056.486938476562	36.70722198486328	24.48484230041504	1008.645324707031	39.21463012695312	74.59307098388672	939.9223022460938	30.33716773986816	-34.44905090332031	788.4229125976562	38.97529220581055	85.21425628662109	983.8004150390625	514.2393798828125	331.2621765136719	870.801025390625	38.3011474609375	340.9172973632812	983.7439575195312	395.8372192382812	312.2728271484375	1091.7099609375	39.13167953491211	291.3103332519531	1032.905151367188	37.71335601806641	250.3790740966797	984.9918212890625	32.97835922241211	369.7579040527344	814.6091918945312	37.30100631713867	276.904296875	1042.900024414062	781.9926147460938	356.2357788085938	
4	0.03	835.01708984375	1054.801513671875	230.5279388427734	836.0238037109375	1048.822875976562	106.5317687988281	835.5155639648438	1090.04931640625	171.2456512451172	1087.862182617188	1298.673706054688	147.6747894287109	799.1491088867188	1243.567749023438	164.0561828613281	856.2400512695312	1515.127075195312	142.9257659912109	1056.812377929688	1410.954467773438	137.4334106445312	799.300048828125	1340.75048828125	259.8587341308594	844.0068969726562	1487.250244140625	43.57259750366211	916.077392578125	1472.812377929688	-39.11855697631836	881.1417846679688	1337.64697265625	-107.1935348510742	899.500244140625	1120.714233398438	-123.2639770507812	862.1465454101562	1104.812133789062	-45.36737060546875	1015.343994140625	891.86083984375	-105.0955047607422	928.7350463867188	868.417236328125	-133.4148101806641	913.0682983398438	1010.818786621094	-137.9953308105469	1036.71044921875	704.4426879882812	-87.90447998046875	951.0808715820312	799.032958984375	-132.0865478515625	1023.73681640625	813.1271362304688	-127.4110565185547	932.5017700195312	1496.1982421875	321.7764892578125	918.5491333007812	1429.436889648438	392.5542297363281	922.6854248046875	1140.666015625	451.013671875	916.754638671875	1129.860961914062	355.1016235351562	1085.50146484375	931.0602416992188	429.134033203125	1015.7607421875	905.05029296875	477.2057189941406	955.7620239257812	1070.938110351562	468.7811584472656	1124.953735351562	747.5524291992188	404.2360534667969	1123.464233398438	841.958984375	435.9671020507812	1053.378662109375	825.7237548828125	472.0496826171875	929.3764038085938	1681.352172851562	209.0414733886719	1091.854248046875	1716.375244140625	67.882080078125	1098.648803710938	1720.0048828125	197.8002777099609	913.4615478515625	1685.2265625	72.34417724609375	931.9251708984375	987.19677734375	-14.51647186279297	998.1800537109375	1014.905395507812	349.5518188476562	1075.310546875	1040.692993164062	290.2096557617188	1060.967041015625	1026.65771484375	32.77415084838867	939.6281127929688	493.1527404785156	18.47842216491699	954.1143798828125	633.8341064453125	-9.137282371520996	834.910400390625	39.4052734375	12.07824039459229	889.7357177734375	272.8019714355469	2.982322454452515	1056.491943359375	36.70631408691406	24.48898124694824	1008.645935058594	39.21443176269531	74.59317779541016	939.9215087890625	30.33743476867676	-34.44976806640625	788.4168090820312	38.98170852661133	85.2105712890625	983.9205932617188	514.1897583007812	331.2108764648438	870.79541015625	38.30610275268555	340.9132385253906	983.8134765625	395.7904968261719	312.2734985351562	1091.710327148438	39.12594223022461	291.308837890625	1032.906127929688	37.71286010742188	250.3787536621094	984.990966796875	32.98270034790039	369.75146484375	814.6113891601562	37.30165863037109	276.9029846191406	1043.1015625	781.9417114257812	356.2372131347656	
